<svg width="67" height="72" viewBox="0 0 67 72" fill="none" xmlns="http://www.w3.org/2000/svg">
<path d="M30.477 0.768139C32.3078 -0.253737 34.6923 -0.258353 36.5214 0.768139C45.7236 5.8388 54.9287 10.9015 64.1294 15.9752C65.8599 16.9258 67.0174 18.8039 66.9998 20.7484V51.2555C67.0127 53.2805 65.7408 55.2035 63.915 56.1325C54.7431 61.1752 45.5758 66.2241 36.4054 71.2668C34.5369 72.3087 32.1045 72.2284 30.2943 71.1011C27.5445 69.5467 24.7901 67.9999 22.04 66.4469C21.4781 66.1202 20.8446 65.8602 20.4478 65.3289C20.7986 64.8678 21.4258 64.8104 21.9354 64.6091C23.0832 64.2532 24.1374 63.6818 25.1919 63.1274C25.4585 62.9495 25.784 63.0177 26.0396 63.1769C28.391 64.4916 30.7216 65.8446 33.0809 67.1467C33.5842 67.4301 34.0938 67.0539 34.524 66.82C43.5245 61.8594 52.5361 56.9174 61.535 51.9553C61.8684 51.7988 62.0528 51.4537 62.0257 51.0975C62.032 41.0339 62.0273 30.9685 62.0289 20.9049C62.067 20.5007 61.8272 20.1292 61.4524 19.9638C52.3123 14.9441 43.1769 9.91681 34.0383 4.8959C33.88 4.78975 33.6924 4.7328 33.5003 4.73252C33.3081 4.73225 33.1204 4.78867 32.9617 4.89436C23.8232 9.91681 14.6893 14.9487 5.55074 19.9681C5.17734 20.1338 4.92674 20.4992 4.97118 20.9049C4.97276 30.9685 4.97118 41.0339 4.97118 51.099C4.95534 51.2728 4.99448 51.4472 5.08334 51.5986C5.17219 51.7501 5.3065 51.8713 5.46817 51.946C7.90685 53.2946 10.3487 54.6337 12.7889 55.9776C14.1637 56.6992 15.8516 57.128 17.3662 56.5751C18.7028 56.1076 19.6398 54.7775 19.6143 53.3936C19.6269 43.3887 19.6079 33.3823 19.6237 23.3789C19.5903 22.9348 20.0224 22.5678 20.4652 22.6096C21.6369 22.6019 22.8102 22.5942 23.982 22.6127C24.4711 22.6019 24.8077 23.0802 24.7472 23.5276C24.7425 33.5959 24.7598 43.6643 24.7393 53.7326C24.7425 56.4159 23.612 59.3356 21.0668 60.6485C17.9313 62.2325 14.0559 61.8966 10.9582 60.3777C8.27656 59.0725 5.71746 57.5321 3.08341 56.1338C1.25296 55.2099 -0.0126586 53.2792 0.000226328 51.2557V20.7484C-0.0189696 18.7637 1.18459 16.8515 2.96902 15.9147C12.1394 10.8679 21.3082 5.81726 30.477 0.768139Z" fill="#F4EFE9"/>
<path d="M38.4772 21.9005C42.4768 21.6495 46.7586 21.7518 50.3577 23.6732C53.1443 25.1457 54.6891 28.2359 54.7383 31.2549C54.6605 31.6621 54.224 31.8867 53.8253 31.8587C52.6649 31.8572 51.5042 31.8741 50.3437 31.8511C49.8515 31.8695 49.5654 31.4269 49.5036 31.0025C49.1702 29.5581 48.3624 28.1274 46.9682 27.4307C44.8279 26.3858 42.3464 26.4383 40.0127 26.4601C38.309 26.5483 36.4769 26.6922 35.0335 27.6692C33.9254 28.4092 33.5889 29.9032 33.9843 31.1064C34.3572 31.9703 35.3799 32.249 36.2166 32.506C41.0366 33.7353 46.1443 33.613 50.8723 35.2308C52.8298 35.8903 54.7446 37.1725 55.4146 39.1711C56.2911 41.8498 55.9069 45.0516 53.9526 47.202C52.3677 48.9716 50.0595 49.9348 47.7573 50.4579C44.6946 51.1239 41.5163 51.1408 38.406 50.8451C35.4814 50.52 32.4379 49.7707 30.1801 47.8274C28.2495 46.1927 27.3065 43.6456 27.4001 41.1872C27.4225 40.772 27.8464 40.4825 28.2542 40.5166C29.4228 40.5074 30.5914 40.5043 31.76 40.5182C32.2267 40.4856 32.5728 40.879 32.5967 41.308C32.8123 42.6842 33.3427 44.1287 34.5734 44.9447C36.9484 46.4389 39.9285 46.3366 42.648 46.3784C44.901 46.2809 47.4302 46.2514 49.2688 44.7993C50.2388 43.971 50.5262 42.5852 50.2641 41.3931C49.9801 40.3866 48.9004 39.9176 47.9732 39.6109C43.215 38.1431 38.0502 38.6757 33.338 37.0158C31.425 36.3565 29.5751 35.11 28.8401 33.1935C27.8146 30.4809 28.2845 27.1258 30.4436 25.048C32.5489 22.9811 35.5879 22.1854 38.4772 21.9005Z" fill="#F4EFE9"/>
</svg>
