<svg width="67" height="67" viewBox="0 0 67 67" fill="none" xmlns="http://www.w3.org/2000/svg">
<path d="M46.4239 46.7923C48.8964 46.5226 50.7721 44.2775 50.6868 41.583C50.6017 38.8887 48.47 36.7332 45.9123 36.7332H45.7419C43.0985 36.8231 41.0524 39.1581 41.1377 41.9422C41.223 43.2895 41.7345 44.457 42.5018 45.2653C39.603 51.2828 35.1695 55.6835 28.5192 59.3658C24.0004 61.8806 19.3112 62.7788 14.622 62.1502C10.7852 61.6113 7.80105 59.8152 5.92505 56.8511C3.19689 52.4504 2.94119 47.6902 5.24327 42.9302C6.86331 39.5173 9.42082 37.0025 11.0409 35.7451C10.6998 34.5776 10.1882 32.6018 9.93248 31.165C-2.43032 40.5952 -1.1513 53.3485 2.60017 59.3658C5.41365 63.8567 11.1262 66.6408 17.4354 66.6408C19.1405 66.6408 20.8456 66.461 22.551 66.0122C33.4644 63.7668 41.7347 56.9409 46.4239 46.7923ZM61.4298 35.6556C54.9499 27.6622 45.4009 23.2615 34.4875 23.2615H33.1234C32.356 21.6449 30.736 20.5669 28.9456 20.5669H28.7749C26.1321 20.6568 24.086 22.9918 24.171 25.7762C24.2563 28.4705 26.3878 30.626 28.9456 30.626H29.1159C30.9917 30.5361 32.6117 29.2788 33.2938 27.5723H34.8285C41.3084 27.5723 47.447 29.5481 52.9891 33.4101C57.252 36.374 60.3214 40.236 62.0265 44.9061C63.4759 48.6782 63.3906 52.3605 61.8559 55.5041C59.4688 60.264 55.4616 62.8686 50.1754 62.8686C46.7649 62.8686 43.5251 61.7907 41.8198 60.9824C40.882 61.8806 39.1767 63.3174 37.983 64.2159C41.6494 66.012 45.4009 67 48.9817 67C57.1667 67 63.2202 62.2398 65.5223 57.4799C67.9948 52.2706 67.8241 43.2895 61.4298 35.6556ZM18.1175 48.3187C18.2028 51.0132 20.3342 53.1685 22.892 53.1685H23.0627C25.7057 53.0789 27.7519 50.7436 27.6665 47.9595C27.5815 45.265 25.4498 43.1097 22.892 43.1097H22.7216C22.551 43.1097 22.295 43.1097 22.1249 43.1993C18.6291 37.0921 17.1797 30.4463 17.6914 23.2612C18.0322 17.8724 19.7375 13.2021 22.7216 9.34009C25.1941 6.01703 29.9686 4.40043 33.2087 4.31083C42.2461 4.13109 46.0826 15.9862 46.3386 20.7464C47.447 21.0158 49.3227 21.6446 50.6017 22.0937C49.5784 7.5443 41.0524 0 32.8677 0C25.1941 0 18.1175 5.83783 15.3037 14.4598C11.3819 25.9557 13.9397 37.0025 18.7142 45.7143C18.2881 46.3429 18.0322 47.3309 18.1175 48.319V48.3187Z" fill="#F4EFE9"/>
</svg>
