<svg width="35" height="35" viewBox="0 0 35 35" fill="none" xmlns="http://www.w3.org/2000/svg">
<path d="M34.3358 10.9172L18.3398 0.253145C17.7938 -0.082842 17.2111 -0.0859182 16.6601 0.253145L0.664042 10.9172C0.253886 11.1906 0 11.679 0 12.1672V22.8312C0 23.3195 0.253886 23.8078 0.66411 24.0813L16.6602 34.7469C17.2062 35.0828 17.7889 35.0859 18.3398 34.7469L34.3359 24.0813C34.746 23.8079 35 23.3195 35 22.8312V12.1672C34.9999 11.679 34.746 11.1906 34.3358 10.9172ZM19.0039 4.31555L30.7812 12.1672L25.5273 15.6829L19.0039 11.3273V4.31555ZM15.9961 4.31555V11.3273L9.47261 15.6829L4.21872 12.1672L15.9961 4.31555ZM3.00781 14.9797L6.77734 17.4992L3.00781 20.0188V14.9797ZM15.9961 30.6829L4.21872 22.8313L9.47261 19.3156L15.9961 23.6712V30.6829ZM17.5 21.0539L12.1874 17.4992L17.5 13.9445L22.8125 17.4992L17.5 21.0539ZM19.0039 30.6829V23.6712L25.5273 19.3156L30.7812 22.8313L19.0039 30.6829ZM31.9921 20.0188L28.2226 17.4992L31.9921 14.9797V20.0188Z" fill="#F96F34"/>
</svg>
