<svg width="1436" height="684" viewBox="0 0 1436 684" fill="none" xmlns="http://www.w3.org/2000/svg">
<path d="M1 36.359C30.9578 38.978 81.0844 56.2964 144.797 48.9304C208.511 41.5643 239.312 0.674575 306.823 1.00195C374.333 1.32933 401.338 46.4096 468.848 50.5018C536.359 54.5941 563.363 19.1715 630.873 20.6448C698.384 22.118 725.388 58.228 792.899 57.5732C860.409 56.9185 887.413 19.1388 954.924 17.5019C1022.43 15.865 1049.44 50.5345 1116.95 49.7161C1184.46 48.8976 1211.46 9.31741 1278.97 13.5733C1346.49 17.8293 1407.24 58.3589 1441 70.1446" stroke="#F96F34" stroke-opacity="0.04" stroke-width="2" stroke-linecap="round"/>
<path d="M1 649.214C30.9578 651.834 81.0844 669.152 144.797 661.786C208.511 654.42 239.312 613.53 306.823 613.857C374.333 614.185 401.338 659.265 468.848 663.357C536.359 667.45 563.363 632.027 630.873 633.5C698.384 634.973 725.388 671.083 792.899 670.429C860.409 669.774 887.413 631.994 954.924 630.357C1022.43 628.72 1049.44 663.39 1116.95 662.572C1184.46 661.753 1211.46 622.173 1278.97 626.429C1346.49 630.685 1407.24 671.214 1441 683" stroke="#F96F34" stroke-opacity="0.04" stroke-width="2" stroke-linecap="round"/>
<path d="M1 625.643C30.9578 628.262 81.0844 645.58 144.797 638.214C208.511 630.848 239.312 589.959 306.823 590.286C374.333 590.613 401.338 635.693 468.848 639.786C536.359 643.878 563.363 608.455 630.873 609.929C698.384 611.402 725.388 647.512 792.899 646.857C860.409 646.202 887.413 608.423 954.924 606.786C1022.43 605.149 1049.44 639.818 1116.95 639C1184.46 638.182 1211.46 598.601 1278.97 602.857C1346.49 607.113 1407.24 647.643 1441 659.429" stroke="#F96F34" stroke-opacity="0.06" stroke-width="2" stroke-linecap="round"/>
<path d="M1 602.072C30.9578 604.691 81.0844 622.009 144.797 614.643C208.511 607.277 239.312 566.387 306.823 566.715C374.333 567.042 401.338 612.122 468.848 616.214C536.359 620.307 563.363 584.884 630.873 586.357C698.384 587.831 725.388 623.941 792.899 623.286C860.409 622.631 887.413 584.851 954.924 583.215C1022.43 581.578 1049.44 616.247 1116.95 615.429C1184.46 614.61 1211.46 575.03 1278.97 579.286C1346.49 583.542 1407.24 624.072 1441 635.857" stroke="#F96F34" stroke-opacity="0.06" stroke-width="2" stroke-linecap="round"/>
<path d="M1 578.5C30.9578 581.119 81.0844 598.438 144.797 591.072C208.511 583.706 239.312 542.816 306.823 543.143C374.333 543.471 401.338 588.551 468.848 592.643C536.359 596.735 563.363 561.313 630.873 562.786C698.384 564.259 725.388 600.369 792.899 599.715C860.409 599.06 887.413 561.28 954.924 559.643C1022.43 558.006 1049.44 592.676 1116.95 591.857C1184.46 591.039 1211.46 551.459 1278.97 555.715C1346.49 559.971 1407.24 600.5 1441 612.286" stroke="#F96F34" stroke-opacity="0.08" stroke-width="2" stroke-linecap="round"/>
<path d="M1 554.929C30.9578 557.548 81.0844 574.866 144.797 567.5C208.511 560.134 239.312 519.244 306.823 519.572C374.333 519.899 401.338 564.979 468.848 569.072C536.359 573.164 563.363 537.741 630.873 539.215C698.384 540.688 725.388 576.798 792.899 576.143C860.409 575.488 887.413 537.709 954.924 536.072C1022.43 534.435 1049.44 569.104 1116.95 568.286C1184.46 567.467 1211.46 527.887 1278.97 532.143C1346.49 536.399 1407.24 576.929 1441 588.714" stroke="#F96F34" stroke-opacity="0.08" stroke-width="2" stroke-linecap="round"/>
<path d="M1 531.358C30.9578 533.977 81.0844 551.295 144.797 543.929C208.511 536.563 239.312 495.673 306.823 496.001C374.333 496.328 401.338 541.408 468.848 545.5C536.359 549.593 563.363 514.17 630.873 515.643C698.384 517.117 725.388 553.227 792.899 552.572C860.409 551.917 887.413 514.137 954.924 512.501C1022.43 510.864 1049.44 545.533 1116.95 544.715C1184.46 543.896 1211.46 504.316 1278.97 508.572C1346.49 512.828 1407.24 553.358 1441 565.143" stroke="#F96F34" stroke-opacity="0.08" stroke-width="2" stroke-linecap="round"/>
<path d="M1 507.786C30.9578 510.405 81.0844 527.724 144.797 520.358C208.511 512.992 239.312 472.102 306.823 472.429C374.333 472.757 401.338 517.837 468.848 521.929C536.359 526.021 563.363 490.599 630.873 492.072C698.384 493.545 725.388 529.655 792.899 529C860.409 528.346 887.413 490.566 954.924 488.929C1022.43 487.292 1049.44 521.962 1116.95 521.143C1184.46 520.325 1211.46 480.745 1278.97 485.001C1346.49 489.257 1407.24 529.786 1441 541.572" stroke="#F96F34" stroke-opacity="0.08" stroke-width="2" stroke-linecap="round"/>
<path d="M1 484.215C30.9578 486.834 81.0844 504.152 144.797 496.786C208.511 489.42 239.312 448.53 306.823 448.858C374.333 449.185 401.338 494.265 468.848 498.358C536.359 502.45 563.363 467.027 630.873 468.5C698.384 469.974 725.388 506.084 792.899 505.429C860.409 504.774 887.413 466.995 954.924 465.358C1022.43 463.721 1049.44 498.39 1116.95 497.572C1184.46 496.753 1211.46 457.173 1278.97 461.429C1346.49 465.685 1407.24 506.215 1441 518" stroke="#F96F34" stroke-opacity="0.08" stroke-width="2" stroke-linecap="round"/>
<path d="M1 460.644C30.9578 463.263 81.0844 480.581 144.797 473.215C208.511 465.849 239.312 424.959 306.823 425.287C374.333 425.614 401.338 470.694 468.848 474.786C536.359 478.879 563.363 443.456 630.873 444.929C698.384 446.403 725.388 482.513 792.899 481.858C860.409 481.203 887.413 443.423 954.924 441.786C1022.43 440.15 1049.44 474.819 1116.95 474.001C1184.46 473.182 1211.46 433.602 1278.97 437.858C1346.49 442.114 1407.24 482.643 1441 494.429" stroke="#F96F34" stroke-opacity="0.08" stroke-width="2" stroke-linecap="round"/>
<path d="M1 437.072C30.9578 439.691 81.0844 457.01 144.797 449.644C208.511 442.277 239.312 401.388 306.823 401.715C374.333 402.042 401.338 447.123 468.848 451.215C536.359 455.307 563.363 419.885 630.873 421.358C698.384 422.831 725.388 458.941 792.899 458.286C860.409 457.632 887.413 419.852 954.924 418.215C1022.43 416.578 1049.44 451.248 1116.95 450.429C1184.46 449.611 1211.46 410.031 1278.97 414.286C1346.49 418.542 1407.24 459.072 1441 470.858" stroke="#F96F34" stroke-opacity="0.08" stroke-width="2" stroke-linecap="round"/>
<path d="M1 413.501C30.9578 416.12 81.0844 433.438 144.797 426.072C208.511 418.706 239.312 377.816 306.823 378.144C374.333 378.471 401.338 423.551 468.848 427.644C536.359 431.736 563.363 396.313 630.873 397.787C698.384 399.26 725.388 435.37 792.899 434.715C860.409 434.06 887.413 396.281 954.924 394.644C1022.43 393.007 1049.44 427.676 1116.95 426.858C1184.46 426.039 1211.46 386.459 1278.97 390.715C1346.49 394.971 1407.24 435.501 1441 447.286" stroke="#F96F34" stroke-opacity="0.08" stroke-width="2" stroke-linecap="round"/>
<path d="M1 389.929C30.9578 392.548 81.0844 409.867 144.797 402.501C208.511 395.135 239.312 354.245 306.823 354.572C374.333 354.9 401.338 399.98 468.848 404.072C536.359 408.164 563.363 372.742 630.873 374.215C698.384 375.688 725.388 411.798 792.899 411.144C860.409 410.489 887.413 372.709 954.924 371.072C1022.43 369.435 1049.44 404.105 1116.95 403.287C1184.46 402.468 1211.46 362.888 1278.97 367.144C1346.49 371.4 1407.24 411.929 1441 423.715" stroke="#F96F34" stroke-opacity="0.08" stroke-width="2" stroke-linecap="round"/>
<path d="M1 366.358C30.9578 368.977 81.0844 386.295 144.797 378.929C208.511 371.563 239.312 330.674 306.823 331.001C374.333 331.328 401.338 376.409 468.848 380.501C536.359 384.593 563.363 349.171 630.873 350.644C698.384 352.117 725.388 388.227 792.899 387.572C860.409 386.917 887.413 349.138 954.924 347.501C1022.43 345.864 1049.44 380.534 1116.95 379.715C1184.46 378.897 1211.46 339.316 1278.97 343.572C1346.49 347.828 1407.24 388.358 1441 400.144" stroke="#F96F34" stroke-opacity="0.08" stroke-width="2" stroke-linecap="round"/>
<path d="M1 342.787C30.9578 345.406 81.0844 362.724 144.797 355.358C208.511 347.992 239.312 307.102 306.823 307.43C374.333 307.757 401.338 352.837 468.848 356.93C536.359 361.022 563.363 325.599 630.873 327.072C698.384 328.546 725.388 364.656 792.899 364.001C860.409 363.346 887.413 325.567 954.924 323.93C1022.43 322.293 1049.44 356.962 1116.95 356.144C1184.46 355.325 1211.46 315.745 1278.97 320.001C1346.49 324.257 1407.24 364.787 1441 376.572" stroke="#F96F34" stroke-opacity="0.08" stroke-width="2" stroke-linecap="round"/>
<path d="M1 319.215C30.9578 321.834 81.0844 339.153 144.797 331.787C208.511 324.421 239.312 283.531 306.823 283.858C374.333 284.186 401.338 329.266 468.848 333.358C536.359 337.45 563.363 302.028 630.873 303.501C698.384 304.974 725.388 341.084 792.899 340.43C860.409 339.775 887.413 301.995 954.924 300.358C1022.43 298.721 1049.44 333.391 1116.95 332.572C1184.46 331.754 1211.46 292.174 1278.97 296.43C1346.49 300.686 1407.24 341.215 1441 353.001" stroke="#F96F34" stroke-opacity="0.08" stroke-width="2" stroke-linecap="round"/>
<path d="M1 295.644C30.9578 298.263 81.0844 315.581 144.797 308.215C208.511 300.849 239.312 259.96 306.823 260.287C374.333 260.614 401.338 305.695 468.848 309.787C536.359 313.879 563.363 278.457 630.873 279.93C698.384 281.403 725.388 317.513 792.899 316.858C860.409 316.203 887.413 278.424 954.924 276.787C1022.43 275.15 1049.44 309.82 1116.95 309.001C1184.46 308.183 1211.46 268.602 1278.97 272.858C1346.49 277.114 1407.24 317.644 1441 329.43" stroke="#F96F34" stroke-opacity="0.08" stroke-width="2" stroke-linecap="round"/>
<path d="M1 272.073C30.9578 274.692 81.0844 292.01 144.797 284.644C208.511 277.278 239.312 236.388 306.823 236.716C374.333 237.043 401.338 282.123 468.848 286.215C536.359 290.308 563.363 254.885 630.873 256.358C698.384 257.832 725.388 293.942 792.899 293.287C860.409 292.632 887.413 254.852 954.924 253.216C1022.43 251.579 1049.44 286.248 1116.95 285.43C1184.46 284.611 1211.46 245.031 1278.97 249.287C1346.49 253.543 1407.24 294.073 1441 305.858" stroke="#F96F34" stroke-opacity="0.08" stroke-width="2" stroke-linecap="round"/>
<path d="M1 248.501C30.9578 251.12 81.0844 268.439 144.797 261.073C208.511 253.707 239.312 212.817 306.823 213.144C374.333 213.472 401.338 258.552 468.848 262.644C536.359 266.736 563.363 231.314 630.873 232.787C698.384 234.26 725.388 270.37 792.899 269.715C860.409 269.061 887.413 231.281 954.924 229.644C1022.43 228.007 1049.44 262.677 1116.95 261.858C1184.46 261.04 1211.46 221.46 1278.97 225.716C1346.49 229.971 1407.24 270.501 1441 282.287" stroke="#F96F34" stroke-opacity="0.08" stroke-width="2" stroke-linecap="round"/>
<path d="M1 224.93C30.9578 227.549 81.0844 244.867 144.797 237.501C208.511 230.135 239.312 189.245 306.823 189.573C374.333 189.9 401.338 234.98 468.848 239.073C536.359 243.165 563.363 207.742 630.873 209.216C698.384 210.689 725.388 246.799 792.899 246.144C860.409 245.489 887.413 207.71 954.924 206.073C1022.43 204.436 1049.44 239.105 1116.95 238.287C1184.46 237.469 1211.46 197.888 1278.97 202.144C1346.49 206.4 1407.24 246.93 1441 258.716" stroke="#F96F34" stroke-opacity="0.08" stroke-width="2" stroke-linecap="round"/>
<path d="M1 201.359C30.9578 203.978 81.0844 221.296 144.797 213.93C208.511 206.564 239.312 165.674 306.823 166.001C374.333 166.329 401.338 211.409 468.848 215.501C536.359 219.594 563.363 184.171 630.873 185.644C698.384 187.117 725.388 223.227 792.899 222.573C860.409 221.918 887.413 184.138 954.924 182.501C1022.43 180.865 1049.44 215.534 1116.95 214.716C1184.46 213.897 1211.46 174.317 1278.97 178.573C1346.49 182.829 1407.24 223.358 1441 235.144" stroke="#F96F34" stroke-opacity="0.08" stroke-width="2" stroke-linecap="round"/>
<path d="M1 177.787C30.9578 180.406 81.0844 197.725 144.797 190.359C208.511 182.993 239.312 142.103 306.823 142.43C374.333 142.758 401.338 187.838 468.848 191.93C536.359 196.022 563.363 160.6 630.873 162.073C698.384 163.546 725.388 199.656 792.899 199.001C860.409 198.347 887.413 160.567 954.924 158.93C1022.43 157.293 1049.44 191.963 1116.95 191.144C1184.46 190.326 1211.46 150.746 1278.97 155.002C1346.49 159.258 1407.24 199.787 1441 211.573" stroke="#F96F34" stroke-opacity="0.08" stroke-width="2" stroke-linecap="round"/>
<path d="M1 154.216C30.9578 156.835 81.0844 174.153 144.797 166.787C208.511 159.421 239.312 118.531 306.823 118.859C374.333 119.186 401.338 164.266 468.848 168.359C536.359 172.451 563.363 137.028 630.873 138.502C698.384 139.975 725.388 176.085 792.899 175.43C860.409 174.775 887.413 136.996 954.924 135.359C1022.43 133.722 1049.44 168.391 1116.95 167.573C1184.46 166.754 1211.46 127.174 1278.97 131.43C1346.49 135.686 1407.24 176.216 1441 188.001" stroke="#F96F34" stroke-opacity="0.08" stroke-width="2" stroke-linecap="round"/>
<path d="M1 130.644C30.9578 133.263 81.0844 150.582 144.797 143.216C208.511 135.85 239.312 94.96 306.823 95.2874C374.333 95.6147 401.338 140.695 468.848 144.787C536.359 148.879 563.363 113.457 630.873 114.93C698.384 116.403 725.388 152.513 792.899 151.859C860.409 151.204 887.413 113.424 954.924 111.787C1022.43 110.15 1049.44 144.82 1116.95 144.001C1184.46 143.183 1211.46 103.603 1278.97 107.859C1346.49 112.115 1407.24 152.644 1441 164.43" stroke="#F96F34" stroke-opacity="0.08" stroke-width="2" stroke-linecap="round"/>
<path d="M1 107.073C30.9578 109.692 81.0844 127.011 144.797 119.644C208.511 112.278 239.312 71.3887 306.823 71.7161C374.333 72.0434 401.338 117.124 468.848 121.216C536.359 125.308 563.363 89.8857 630.873 91.3589C698.384 92.8321 725.388 128.942 792.899 128.287C860.409 127.633 887.413 89.8529 954.924 88.216C1022.43 86.5791 1049.44 121.249 1116.95 120.43C1184.46 119.612 1211.46 80.0315 1278.97 84.2875C1346.49 88.5434 1407.24 129.073 1441 140.859" stroke="#F96F34" stroke-opacity="0.08" stroke-width="2" stroke-linecap="round"/>
<path d="M1 83.5017C30.9578 86.1207 81.0844 103.439 144.797 96.0731C208.511 88.707 239.312 47.8173 306.823 48.1447C374.333 48.472 401.338 93.5523 468.848 97.6445C536.359 101.737 563.363 66.3142 630.873 67.7875C698.384 69.2607 725.388 105.371 792.899 104.716C860.409 104.061 887.413 66.2815 954.924 64.6446C1022.43 63.0077 1049.44 97.6772 1116.95 96.8588C1184.46 96.0403 1211.46 56.4601 1278.97 60.716C1346.49 64.972 1407.24 105.502 1441 117.287" stroke="#F96F34" stroke-opacity="0.06" stroke-width="2" stroke-linecap="round"/>
<path d="M1 59.9304C30.9578 62.5494 81.0844 79.8678 144.797 72.5018C208.511 65.1357 239.312 24.246 306.823 24.5734C374.333 24.9007 401.338 69.981 468.848 74.0732C536.359 78.1655 563.363 42.743 630.873 44.2162C698.384 45.6894 725.388 81.7994 792.899 81.1446C860.409 80.4899 887.413 42.7102 954.924 41.0733C1022.43 39.4364 1049.44 74.106 1116.95 73.2875C1184.46 72.4691 1211.46 32.8888 1278.97 37.1448C1346.49 41.4007 1407.24 81.9303 1441 93.716" stroke="#F96F34" stroke-opacity="0.06" stroke-width="2" stroke-linecap="round"/>
</svg>
