<svg width="50" height="50" viewBox="0 0 50 50" fill="none" xmlns="http://www.w3.org/2000/svg">
<g clip-path="url(#clip0_202_330)">
<path d="M34.6447 34.7806C36.4898 34.5802 37.8896 32.9115 37.826 30.9087C37.7625 28.9062 36.1717 27.3041 34.2629 27.3041H34.1357C32.1631 27.3709 30.6361 29.1064 30.6998 31.1757C30.7635 32.1771 31.1451 33.0448 31.7178 33.6456C29.5545 38.1182 26.2459 41.3891 21.283 44.1259C17.9107 45.9951 14.4113 46.6626 10.9119 46.1954C8.04863 45.7949 5.82168 44.4599 4.42168 42.2568C2.38574 38.986 2.19492 35.4479 3.91289 31.9101C5.12187 29.3734 7.03047 27.5043 8.23945 26.5697C7.98496 25.702 7.60312 24.2334 7.4123 23.1655C-1.81367 30.1746 -0.859182 39.6535 1.94043 44.1259C4.04004 47.4638 8.30312 49.5331 13.0115 49.5331C14.284 49.5331 15.5564 49.3995 16.8291 49.0659C24.9734 47.397 31.1453 42.3236 34.6447 34.7806V34.7806ZM45.8432 26.5031C41.0074 20.562 33.8812 17.2912 25.7369 17.2912H24.7189C24.1463 16.0896 22.9373 15.2885 21.6012 15.2885H21.4738C19.5016 15.3553 17.9746 17.0908 18.0381 19.1603C18.1018 21.1628 19.6924 22.7649 21.6012 22.7649H21.7283C23.1281 22.6981 24.3371 21.7636 24.8461 20.4952H25.9914C30.8271 20.4952 35.4082 21.9637 39.5441 24.8342C42.7254 27.0371 45.016 29.9076 46.2885 33.3786C47.3701 36.1823 47.3064 38.9192 46.1611 41.2557C44.3797 44.7935 41.3893 46.7294 37.4443 46.7294C34.8992 46.7294 32.4814 45.9283 31.2088 45.3275C30.509 45.9951 29.2363 47.063 28.3455 47.7308C31.0816 49.0657 33.8812 49.8001 36.5535 49.8001C42.6617 49.8001 47.1793 46.262 48.8973 42.7242C50.7424 38.8524 50.615 32.1771 45.8432 26.5031V26.5031ZM13.5205 35.9151C13.5842 37.9178 15.1748 39.5197 17.0836 39.5197H17.2109C19.1834 39.4532 20.7103 37.7174 20.6467 35.6481C20.5832 33.6454 18.9924 32.0435 17.0836 32.0435H16.9564C16.8291 32.0435 16.6381 32.0435 16.5111 32.1101C13.9023 27.5709 12.8207 22.6313 13.2025 17.291C13.4568 13.2857 14.7295 9.8145 16.9564 6.94403C18.8016 4.47414 22.3646 3.2726 24.7826 3.206C31.5269 3.07241 34.39 11.8838 34.581 15.4218C35.4082 15.622 36.808 16.0894 37.7625 16.4232C36.9988 5.6093 30.6361 0.00195312 24.5281 0.00195312C18.8016 0.00195312 13.5205 4.34096 11.4207 10.7493C8.49394 19.2937 10.4027 27.5043 13.9658 33.9794C13.6478 34.4466 13.4568 35.1809 13.5205 35.9153V35.9151Z" fill="#F96F34"/>
</g>
<defs>
<clipPath id="clip0_202_330">
<rect width="50" height="50" fill="white"/>
</clipPath>
</defs>
</svg>
