<svg width="1440" height="1003" viewBox="0 0 1440 1003" fill="none" xmlns="http://www.w3.org/2000/svg">
<path opacity="0.8" d="M1406.1 833.47L1033.54 557.726C1032.58 557.016 1030.88 556.924 1029.74 557.519C1028.6 558.114 1028.45 559.172 1029.41 559.881L1401.97 835.625C1402.92 836.335 1404.63 836.427 1405.77 835.832C1406.91 835.237 1407.06 834.179 1406.1 833.47Z" fill="#F96F34" fill-opacity="0.1"/>
<path opacity="0.66" d="M123.874 521.546L8.17229 435.911C7.21379 435.202 5.51075 435.109 4.36845 435.704C3.22615 436.3 3.07715 437.357 4.03565 438.067L119.737 523.701C120.696 524.411 122.399 524.503 123.541 523.908C124.684 523.313 124.833 522.255 123.874 521.546Z" fill="#F96F34" fill-opacity="0.1"/>
<path opacity="0.73" d="M1235.5 403.43L1142.94 334.922C1141.98 334.212 1140.28 334.12 1139.14 334.715C1138 335.31 1137.85 336.368 1138.81 337.078L1231.37 405.585C1232.33 406.295 1234.03 406.387 1235.17 405.792C1236.31 405.197 1236.46 404.139 1235.5 403.43Z" fill="#F96F34" fill-opacity="0.1"/>
<path opacity="0.74" d="M911.809 506.835L512.638 211.395C511.679 210.685 509.976 210.593 508.834 211.188C507.691 211.783 507.542 212.841 508.501 213.55L907.672 508.991C908.631 509.7 910.334 509.793 911.476 509.197C912.618 508.602 912.767 507.544 911.809 506.835Z" fill="#F96F34" fill-opacity="0.1"/>
<path opacity="0.34" d="M1259.87 821.756L1154.58 743.829C1153.62 743.119 1151.92 743.027 1150.77 743.622C1149.63 744.217 1149.48 745.275 1150.44 745.984L1255.73 823.912C1256.69 824.621 1258.39 824.714 1259.53 824.119C1260.68 823.523 1260.83 822.466 1259.87 821.756Z" fill="#F96F34" fill-opacity="0.1"/>
<path opacity="0.13" d="M1417.43 203.19L1234.62 67.8867C1233.66 67.1773 1231.96 67.0847 1230.81 67.68C1229.67 68.2753 1229.52 69.333 1230.48 70.0424L1413.29 205.345C1414.25 206.055 1415.95 206.147 1417.09 205.552C1418.24 204.957 1418.39 203.899 1417.43 203.19Z" fill="#F96F34" fill-opacity="0.1"/>
<path opacity="0.33" d="M576.122 242.529L419.924 126.922C418.966 126.212 417.263 126.12 416.121 126.715C414.978 127.31 414.829 128.368 415.788 129.077L571.985 244.684C572.944 245.394 574.647 245.486 575.789 244.891C576.931 244.296 577.08 243.238 576.122 242.529Z" fill="#F96F34" fill-opacity="0.1"/>
<path opacity="0.6" d="M441.505 520.384L241.341 372.236C240.382 371.526 238.679 371.434 237.537 372.029C236.395 372.624 236.246 373.682 237.204 374.391L437.368 522.54C438.327 523.249 440.03 523.341 441.172 522.746C442.315 522.151 442.464 521.093 441.505 520.384Z" fill="#F96F34" fill-opacity="0.1"/>
<path opacity="0.79" d="M290.567 900.413L169.08 810.497C168.121 809.787 166.418 809.695 165.276 810.29C164.134 810.885 163.985 811.943 164.943 812.652L286.43 902.569C287.389 903.278 289.092 903.371 290.234 902.776C291.376 902.18 291.525 901.123 290.567 900.413Z" fill="#F96F34" fill-opacity="0.1"/>
<path opacity="0.38" d="M1156.23 557.945L833.419 319.024C832.461 318.315 830.758 318.222 829.615 318.817C828.473 319.413 828.324 320.47 829.282 321.18L1152.09 560.101C1153.05 560.81 1154.75 560.903 1155.89 560.307C1157.04 559.712 1157.19 558.655 1156.23 557.945Z" fill="#F96F34" fill-opacity="0.1"/>
<path opacity="0.94" d="M242.094 99.3678L95.1525 -9.38842C94.194 -10.0978 92.491 -10.1904 91.3487 -9.5951C90.2064 -8.99983 90.0574 -7.94216 91.0159 -7.23274L237.957 101.523C238.916 102.233 240.619 102.325 241.761 101.73C242.903 101.135 243.052 100.077 242.094 99.3678Z" fill="#F96F34" fill-opacity="0.1"/>
<path opacity="0.47" d="M1330.77 361.478L1134.08 215.899C1133.12 215.189 1131.41 215.097 1130.27 215.692C1129.13 216.287 1128.98 217.345 1129.94 218.054L1326.63 363.633C1327.59 364.343 1329.29 364.435 1330.44 363.84C1331.58 363.245 1331.73 362.187 1330.77 361.478Z" fill="#F96F34" fill-opacity="0.1"/>
<path opacity="0.71" d="M1183.75 84.4766L1083.09 9.97431C1082.13 9.26489 1080.43 9.17236 1079.29 9.76763C1078.15 10.3629 1078 11.4206 1078.96 12.13L1179.62 86.6323C1180.58 87.3417 1182.28 87.4342 1183.42 86.839C1184.56 86.2437 1184.71 85.186 1183.75 84.4766Z" fill="#F96F34" fill-opacity="0.1"/>
<path opacity="0.58" d="M257.004 226.786L40.642 66.6485C39.6835 65.9391 37.9805 65.8465 36.8382 66.4418C35.6959 67.0371 35.5469 68.0948 36.5054 68.8042L252.868 228.941C253.826 229.651 255.529 229.743 256.672 229.148C257.814 228.553 257.963 227.495 257.004 226.786Z" fill="#F96F34" fill-opacity="0.1"/>
<path opacity="0.26" d="M719.803 886.76L611.043 806.264C610.085 805.554 608.382 805.462 607.24 806.057C606.097 806.652 605.948 807.71 606.907 808.419L715.666 888.916C716.625 889.625 718.328 889.718 719.47 889.123C720.613 888.527 720.762 887.47 719.803 886.76Z" fill="#F96F34" fill-opacity="0.1"/>
<path opacity="0.88" d="M436.367 631.003L314.88 541.087C313.921 540.377 312.218 540.285 311.076 540.88C309.934 541.475 309.785 542.533 310.743 543.243L432.23 633.159C433.189 633.868 434.892 633.961 436.034 633.366C437.176 632.77 437.325 631.713 436.367 631.003Z" fill="#F96F34" fill-opacity="0.1"/>
<path opacity="0.74" d="M1111.67 275.266L715.973 -17.6046C715.015 -18.314 713.312 -18.4065 712.169 -17.8113C711.027 -17.216 710.878 -16.1583 711.837 -15.4489L1107.54 277.422C1108.5 278.132 1110.2 278.224 1111.34 277.629C1112.48 277.034 1112.63 275.976 1111.67 275.266Z" fill="#F96F34" fill-opacity="0.1"/>
<path opacity="0.97" d="M1416.4 360.237L1307.64 279.741C1306.68 279.031 1304.98 278.939 1303.84 279.534C1302.7 280.129 1302.55 281.187 1303.51 281.896L1412.27 362.393C1413.22 363.102 1414.93 363.195 1416.07 362.6C1417.21 362.004 1417.36 360.947 1416.4 360.237Z" fill="#F96F34" fill-opacity="0.1"/>
<path opacity="0.16" d="M789.998 121.205L584.049 -31.2253C583.09 -31.9347 581.387 -32.0272 580.245 -31.432C579.102 -30.8367 578.953 -29.779 579.912 -29.0696L785.861 123.36C786.82 124.07 788.523 124.162 789.665 123.567C790.807 122.972 790.956 121.914 789.998 121.205Z" fill="#F96F34" fill-opacity="0.1"/>
<path opacity="0.13" d="M883.537 469.649L738.91 362.605C737.951 361.896 736.248 361.803 735.106 362.398C733.963 362.994 733.814 364.051 734.773 364.761L879.4 471.804C880.359 472.514 882.062 472.606 883.204 472.011C884.346 471.416 884.495 470.358 883.537 469.649Z" fill="#F96F34" fill-opacity="0.1"/>
<path opacity="0.3" d="M367.907 704.756L340.139 684.204C339.18 683.494 337.477 683.402 336.335 683.997C335.193 684.592 335.044 685.65 336.002 686.359L363.771 706.912C364.729 707.621 366.432 707.714 367.574 707.118C368.717 706.523 368.866 705.465 367.907 704.756Z" fill="#F96F34" fill-opacity="0.1"/>
<path opacity="0.07" d="M300.143 773.095L145.103 658.344C144.144 657.635 142.441 657.542 141.299 658.138C140.157 658.733 140.008 659.79 140.966 660.5L296.007 775.251C296.965 775.96 298.668 776.053 299.811 775.457C300.953 774.862 301.102 773.804 300.143 773.095Z" fill="#F96F34" fill-opacity="0.1"/>
<path opacity="0.42" d="M674.549 200.544L616.698 157.727C615.739 157.018 614.036 156.925 612.894 157.52C611.752 158.116 611.603 159.173 612.561 159.883L670.412 202.7C671.37 203.409 673.073 203.502 674.216 202.907C675.358 202.311 675.507 201.254 674.549 200.544Z" fill="#F96F34" fill-opacity="0.1"/>
<path opacity="0.99" d="M1277.35 290.669L1111.9 168.212C1110.94 167.502 1109.23 167.41 1108.09 168.005C1106.95 168.6 1106.8 169.658 1107.76 170.367L1273.21 292.825C1274.17 293.534 1275.87 293.627 1277.02 293.032C1278.16 292.436 1278.31 291.379 1277.35 290.669Z" fill="#F96F34" fill-opacity="0.1"/>
<path opacity="0.77" d="M1283.83 896.548L885.816 601.964C884.858 601.255 883.155 601.162 882.012 601.757C880.87 602.353 880.721 603.41 881.679 604.12L1279.69 898.704C1280.65 899.413 1282.36 899.506 1283.5 898.91C1284.64 898.315 1284.79 897.257 1283.83 896.548Z" fill="#F96F34" fill-opacity="0.1"/>
<path opacity="0.71" d="M830.305 780.851L630.141 632.702C629.183 631.993 627.48 631.9 626.337 632.496C625.195 633.091 625.046 634.149 626.005 634.858L826.169 783.006C827.127 783.716 828.83 783.808 829.973 783.213C831.115 782.618 831.264 781.56 830.305 780.851Z" fill="#F96F34" fill-opacity="0.1"/>
<path opacity="0.43" d="M1492 243.362L1318.45 114.91C1317.49 114.2 1315.79 114.108 1314.64 114.703C1313.5 115.298 1313.35 116.356 1314.31 117.065L1487.86 245.517C1488.82 246.227 1490.52 246.319 1491.67 245.724C1492.81 245.129 1492.96 244.071 1492 243.362Z" fill="#F96F34" fill-opacity="0.1"/>
<path opacity="0.95" d="M631.281 752.33L505.166 658.988C504.207 658.278 502.504 658.186 501.362 658.781C500.22 659.376 500.071 660.434 501.029 661.143L627.144 754.485C628.103 755.195 629.806 755.287 630.948 754.692C632.09 754.097 632.239 753.039 631.281 752.33Z" fill="#F96F34" fill-opacity="0.1"/>
<path opacity="0.49" d="M1206.76 550.71L988.085 388.86C987.127 388.151 985.424 388.058 984.281 388.654C983.139 389.249 982.99 390.307 983.948 391.016L1202.62 552.866C1203.58 553.575 1205.29 553.668 1206.43 553.073C1207.57 552.477 1207.72 551.42 1206.76 550.71Z" fill="#F96F34" fill-opacity="0.1"/>
<path opacity="0.8" d="M530.284 754.45L328.963 605.445C328.004 604.736 326.301 604.643 325.159 605.238C324.016 605.834 323.867 606.891 324.826 607.601L526.147 756.605C527.106 757.315 528.809 757.407 529.951 756.812C531.093 756.217 531.242 755.159 530.284 754.45Z" fill="#F96F34" fill-opacity="0.1"/>
<path opacity="0.43" d="M1495.6 459.923L1289.65 307.493C1288.69 306.784 1286.99 306.691 1285.84 307.287C1284.7 307.882 1284.55 308.94 1285.51 309.649L1491.46 462.079C1492.42 462.788 1494.12 462.881 1495.26 462.286C1496.41 461.69 1496.56 460.633 1495.6 459.923Z" fill="#F96F34" fill-opacity="0.1"/>
<path opacity="0.42" d="M588.469 661.089L515.577 607.139C514.619 606.43 512.916 606.337 511.773 606.932C510.631 607.528 510.482 608.585 511.44 609.295L584.333 663.245C585.291 663.954 586.994 664.047 588.136 663.451C589.279 662.856 589.428 661.798 588.469 661.089Z" fill="#F96F34" fill-opacity="0.1"/>
<path opacity="0.66" d="M1493.6 738.468L1244.84 554.353C1243.88 553.644 1242.18 553.551 1241.04 554.147C1239.9 554.742 1239.75 555.8 1240.71 556.509L1489.47 740.624C1490.42 741.333 1492.13 741.426 1493.27 740.831C1494.41 740.235 1494.56 739.178 1493.6 738.468Z" fill="#F96F34" fill-opacity="0.1"/>
<path opacity="0.97" d="M143.414 913.163L-18.5682 793.275C-19.5267 792.565 -21.2297 792.473 -22.372 793.068C-23.5143 793.663 -23.6633 794.721 -22.7048 795.43L139.278 915.319C140.236 916.029 141.939 916.121 143.082 915.526C144.224 914.931 144.373 913.873 143.414 913.163Z" fill="#F96F34" fill-opacity="0.1"/>
<path opacity="0.99" d="M374.973 284.96L243.073 187.336C242.115 186.626 240.412 186.534 239.269 187.129C238.127 187.724 237.978 188.782 238.937 189.492L370.837 287.115C371.795 287.825 373.498 287.917 374.64 287.322C375.783 286.727 375.932 285.669 374.973 284.96Z" fill="#F96F34" fill-opacity="0.1"/>
<path opacity="0.86" d="M689.97 285.462L493.277 139.883C492.318 139.173 490.615 139.081 489.473 139.676C488.33 140.271 488.181 141.329 489.14 142.038L685.833 287.617C686.791 288.327 688.494 288.419 689.637 287.824C690.779 287.229 690.928 286.171 689.97 285.462Z" fill="#F96F34" fill-opacity="0.1"/>
<path opacity="0.74" d="M1144.91 935.697L761.937 652.246C760.978 651.536 759.275 651.444 758.133 652.039C756.991 652.634 756.842 653.692 757.8 654.401L1140.77 937.853C1141.73 938.562 1143.43 938.655 1144.58 938.059C1145.72 937.464 1145.87 936.406 1144.91 935.697Z" fill="#F96F34" fill-opacity="0.1"/>
<path opacity="0.23" d="M902.493 960.524L615.553 748.15C614.594 747.44 612.891 747.348 611.749 747.943C610.607 748.538 610.458 749.596 611.416 750.306L898.357 962.68C899.315 963.389 901.018 963.482 902.161 962.887C903.303 962.291 903.452 961.234 902.493 960.524Z" fill="#F96F34" fill-opacity="0.1"/>
<path opacity="0.36" d="M1060.45 270.45L943.594 183.959C942.635 183.25 940.932 183.157 939.79 183.752C938.648 184.348 938.499 185.405 939.457 186.115L1056.32 272.606C1057.27 273.315 1058.98 273.408 1060.12 272.813C1061.26 272.217 1061.41 271.16 1060.45 270.45Z" fill="#F96F34" fill-opacity="0.1"/>
<path opacity="0.37" d="M1551.97 999.56L1150.48 702.407C1149.52 701.698 1147.82 701.605 1146.68 702.2C1145.53 702.796 1145.39 703.853 1146.34 704.563L1547.83 1001.72C1548.79 1002.42 1550.49 1002.52 1551.63 1001.92C1552.78 1001.33 1552.92 1000.27 1551.97 999.56Z" fill="#F96F34" fill-opacity="0.1"/>
<path opacity="0.96" d="M904.94 640.569L685.107 477.863C684.148 477.153 682.445 477.061 681.303 477.656C680.16 478.251 680.011 479.309 680.97 480.019L900.803 642.725C901.762 643.434 903.465 643.527 904.607 642.931C905.75 642.336 905.898 641.278 904.94 640.569Z" fill="#F96F34" fill-opacity="0.1"/>
<path opacity="0.88" d="M148.686 84.0276L-20.2391 -40.9993C-21.1976 -41.7087 -22.9006 -41.8012 -24.0429 -41.2059C-25.1852 -40.6107 -25.3342 -39.553 -24.3757 -38.8436L144.549 86.1833C145.507 86.8927 147.21 86.9852 148.353 86.3899C149.495 85.7947 149.644 84.737 148.686 84.0276Z" fill="#F96F34" fill-opacity="0.1"/>
<path opacity="0.12" d="M441.575 70.6338L342.071 -3.01211C341.113 -3.72153 339.41 -3.81406 338.268 -3.21879C337.125 -2.62351 336.976 -1.56585 337.935 -0.856424L437.438 72.7895C438.397 73.4989 440.1 73.5915 441.242 72.9962C442.385 72.4009 442.534 71.3433 441.575 70.6338Z" fill="#F96F34" fill-opacity="0.1"/>
<path opacity="0.91" d="M695.497 626.893L473.35 462.474C472.391 461.765 470.688 461.672 469.546 462.267C468.403 462.863 468.254 463.92 469.213 464.63L691.36 629.049C692.319 629.758 694.022 629.851 695.164 629.255C696.306 628.66 696.455 627.602 695.497 626.893Z" fill="#F96F34" fill-opacity="0.1"/>
<path opacity="0.68" d="M914.334 352.387L844.913 301.006C843.954 300.296 842.251 300.204 841.109 300.799C839.966 301.394 839.817 302.452 840.776 303.161L910.197 354.542C911.155 355.252 912.859 355.344 914.001 354.749C915.143 354.154 915.292 353.096 914.334 352.387Z" fill="#F96F34" fill-opacity="0.1"/>
<path opacity="0.18" d="M457.829 940.569L167.417 725.626C166.459 724.916 164.756 724.824 163.614 725.419C162.471 726.014 162.322 727.072 163.281 727.781L453.692 942.725C454.651 943.434 456.354 943.527 457.496 942.931C458.638 942.336 458.787 941.278 457.829 940.569Z" fill="#F96F34" fill-opacity="0.1"/>
<path opacity="0.33" d="M1330.84 23.0139L1299.6 -0.107507C1298.64 -0.816929 1296.94 -0.909462 1295.8 -0.314187C1294.66 0.281089 1294.51 1.33876 1295.47 2.04818L1326.71 25.1696C1327.66 25.879 1329.37 25.9715 1330.51 25.3763C1331.65 24.781 1331.8 23.7233 1330.84 23.0139Z" fill="#F96F34" fill-opacity="0.1"/>
<path opacity="0.97" d="M842.968 250.5L613.879 80.9426C612.92 80.2332 611.217 80.1407 610.075 80.736C608.932 81.3312 608.783 82.3889 609.742 83.0983L838.831 252.655C839.79 253.365 841.493 253.457 842.635 252.862C843.778 252.267 843.927 251.209 842.968 250.5Z" fill="#F96F34" fill-opacity="0.1"/>
<path opacity="0.11" d="M890.657 623.548L450.99 298.136C450.031 297.427 448.328 297.334 447.186 297.929C446.044 298.525 445.895 299.582 446.853 300.292L886.52 625.704C887.479 626.414 889.182 626.506 890.324 625.911C891.466 625.315 891.615 624.258 890.657 623.548Z" fill="#F96F34" fill-opacity="0.1"/>
<path opacity="0.1" d="M707.83 527.646L309.816 233.063C308.858 232.353 307.155 232.261 306.012 232.856C304.87 233.451 304.721 234.509 305.679 235.218L703.694 529.802C704.652 530.512 706.355 530.604 707.497 530.009C708.64 529.414 708.789 528.356 707.83 527.646Z" fill="#F96F34" fill-opacity="0.1"/>
<path opacity="0.92" d="M1322.28 684.833L1088.56 511.851C1087.61 511.141 1085.9 511.049 1084.76 511.644C1083.62 512.239 1083.47 513.297 1084.43 514.006L1318.15 686.989C1319.1 687.698 1320.81 687.791 1321.95 687.195C1323.09 686.6 1323.24 685.542 1322.28 684.833Z" fill="#F96F34" fill-opacity="0.1"/>
<path opacity="0.27" d="M372.596 663.802L274.25 591.012C273.291 590.303 271.588 590.21 270.446 590.805C269.304 591.401 269.155 592.458 270.113 593.168L368.46 665.957C369.418 666.667 371.121 666.759 372.264 666.164C373.406 665.569 373.555 664.511 372.596 663.802Z" fill="#F96F34" fill-opacity="0.1"/>
<path opacity="0.18" d="M969.55 920.037L804.096 797.58C803.138 796.87 801.435 796.778 800.293 797.373C799.15 797.968 799.001 799.026 799.96 799.735L965.413 922.193C966.372 922.903 968.075 922.995 969.217 922.4C970.359 921.804 970.508 920.747 969.55 920.037Z" fill="#F96F34" fill-opacity="0.1"/>
<path opacity="0.62" d="M454.56 899.913L343.486 817.704C342.528 816.994 340.825 816.902 339.682 817.497C338.54 818.092 338.391 819.15 339.35 819.86L450.423 902.069C451.382 902.778 453.085 902.871 454.227 902.276C455.369 901.68 455.518 900.623 454.56 899.913Z" fill="#F96F34" fill-opacity="0.1"/>
<path opacity="0.28" d="M698.2 90.2118L524.647 -38.2404C523.688 -38.9499 521.985 -39.0424 520.843 -38.4471C519.701 -37.8518 519.552 -36.7942 520.51 -36.0848L694.063 92.3675C695.021 93.0769 696.724 93.1694 697.867 92.5741C699.009 91.9789 699.158 90.9212 698.2 90.2118Z" fill="#F96F34" fill-opacity="0.1"/>
<path d="M286.77 551.518L90.0766 405.939C89.1181 405.229 87.415 405.137 86.2727 405.732C85.1304 406.327 84.9814 407.385 85.94 408.094L282.633 553.674C283.591 554.383 285.295 554.476 286.437 553.88C287.579 553.285 287.728 552.227 286.77 551.518Z" fill="#F96F34" fill-opacity="0.1"/>
<path opacity="0.38" d="M1190.23 687.812L824.614 417.206C823.656 416.496 821.953 416.404 820.811 416.999C819.668 417.594 819.519 418.652 820.478 419.361L1186.1 689.967C1187.05 690.677 1188.76 690.769 1189.9 690.174C1191.04 689.579 1191.19 688.521 1190.23 687.812Z" fill="#F96F34" fill-opacity="0.1"/>
<path opacity="0.16" d="M147.976 236.775L-59.13 83.4885C-60.0885 82.7791 -61.7915 82.6865 -62.9338 83.2818C-64.0761 83.8771 -64.2251 84.9348 -63.2666 85.6442L143.84 238.93C144.798 239.64 146.501 239.732 147.643 239.137C148.786 238.542 148.935 237.484 147.976 236.775Z" fill="#F96F34" fill-opacity="0.1"/>
<path opacity="0.16" d="M525.401 690.823L384.245 586.348C383.287 585.639 381.584 585.546 380.441 586.142C379.299 586.737 379.15 587.795 380.108 588.504L521.265 692.978C522.223 693.688 523.926 693.78 525.068 693.185C526.211 692.59 526.36 691.532 525.401 690.823Z" fill="#F96F34" fill-opacity="0.1"/>
<path opacity="0.83" d="M1032.81 668.155L913.637 579.951C912.678 579.242 910.975 579.149 909.833 579.745C908.691 580.34 908.542 581.397 909.5 582.107L1028.67 670.311C1029.63 671.02 1031.33 671.113 1032.48 670.517C1033.62 669.922 1033.77 668.864 1032.81 668.155Z" fill="#F96F34" fill-opacity="0.1"/>
<path opacity="0.21" d="M191.945 404.888L-70.6983 210.497C-71.6568 209.787 -73.3599 209.695 -74.5022 210.29C-75.6445 210.885 -75.7935 211.943 -74.835 212.652L187.808 407.043C188.767 407.753 190.47 407.845 191.612 407.25C192.754 406.655 192.903 405.597 191.945 404.888Z" fill="#F96F34" fill-opacity="0.1"/>
<path opacity="0.55" d="M1405.91 235.092L1055.33 -24.3813C1054.38 -25.0908 1052.67 -25.1833 1051.53 -24.588C1050.39 -23.9927 1050.24 -22.9351 1051.2 -22.2257L1401.77 237.248C1402.73 237.957 1404.44 238.05 1405.58 237.455C1406.72 236.859 1406.87 235.802 1405.91 235.092Z" fill="#F96F34" fill-opacity="0.1"/>
<path opacity="0.66" d="M362.626 227.475L147.421 68.1946C146.462 67.4851 144.759 67.3926 143.617 67.9879C142.474 68.5832 142.325 69.6408 143.284 70.3502L358.489 229.631C359.448 230.34 361.151 230.433 362.293 229.838C363.435 229.242 363.584 228.185 362.626 227.475Z" fill="#F96F34" fill-opacity="0.1"/>
<path opacity="0.79" d="M953.861 785.871L718.986 612.032C718.028 611.323 716.324 611.23 715.182 611.825C714.04 612.421 713.891 613.478 714.849 614.188L949.724 788.026C950.682 788.736 952.386 788.828 953.528 788.233C954.67 787.638 954.819 786.58 953.861 785.871Z" fill="#F96F34" fill-opacity="0.1"/>
<path opacity="0.69" d="M1390.17 808.939L1225.87 687.337C1224.92 686.628 1223.21 686.535 1222.07 687.131C1220.93 687.726 1220.78 688.784 1221.74 689.493L1386.03 811.095C1386.99 811.804 1388.7 811.897 1389.84 811.301C1390.98 810.706 1391.13 809.648 1390.17 808.939Z" fill="#F96F34" fill-opacity="0.1"/>
<path opacity="0.45" d="M129.211 148.647L42.435 84.4211C41.4765 83.7117 39.7734 83.6192 38.6311 84.2144C37.4888 84.8097 37.3398 85.8674 38.2983 86.5768L125.075 150.803C126.033 151.512 127.736 151.605 128.879 151.01C130.021 150.414 130.17 149.357 129.211 148.647Z" fill="#F96F34" fill-opacity="0.1"/>
<path opacity="0.91" d="M280.539 690.179L168.308 607.114C167.349 606.404 165.646 606.312 164.504 606.907C163.362 607.502 163.213 608.56 164.171 609.269L276.402 692.335C277.36 693.045 279.063 693.137 280.206 692.542C281.348 691.946 281.497 690.889 280.539 690.179Z" fill="#F96F34" fill-opacity="0.1"/>
<path opacity="0.93" d="M1373.39 258.512L1210.25 137.767C1209.29 137.058 1207.59 136.965 1206.45 137.56C1205.31 138.156 1205.16 139.213 1206.12 139.923L1369.26 260.668C1370.21 261.377 1371.92 261.47 1373.06 260.875C1374.2 260.279 1374.35 259.222 1373.39 258.512Z" fill="#F96F34" fill-opacity="0.1"/>
<path opacity="0.36" d="M1058.91 102.101L955.936 25.8862C954.977 25.1768 953.274 25.0843 952.132 25.6795C950.99 26.2748 950.841 27.3325 951.799 28.0419L1054.77 104.257C1055.73 104.966 1057.44 105.059 1058.58 104.464C1059.72 103.868 1059.87 102.811 1058.91 102.101Z" fill="#F96F34" fill-opacity="0.1"/>
<path opacity="0.92" d="M1342.15 86.7124L1241.49 12.2101C1240.53 11.5007 1238.83 11.4081 1237.69 12.0034C1236.55 12.5987 1236.4 13.6564 1237.36 14.3658L1338.02 88.8681C1338.98 89.5775 1340.68 89.67 1341.82 89.0747C1342.96 88.4795 1343.11 87.4218 1342.15 86.7124Z" fill="#F96F34" fill-opacity="0.1"/>
<path opacity="0.45" d="M242.214 689.973L-59.7676 466.466C-60.7262 465.757 -62.4292 465.665 -63.5715 466.26C-64.7138 466.855 -64.8628 467.913 -63.9043 468.622L238.077 692.129C239.036 692.838 240.739 692.931 241.881 692.336C243.024 691.74 243.173 690.683 242.214 689.973Z" fill="#F96F34" fill-opacity="0.1"/>
<path opacity="0.9" d="M1014.42 746.597L906.822 666.956C905.863 666.247 904.16 666.154 903.018 666.75C901.876 667.345 901.727 668.403 902.685 669.112L1010.29 748.752C1011.25 749.462 1012.95 749.554 1014.09 748.959C1015.23 748.364 1015.38 747.306 1014.42 746.597Z" fill="#F96F34" fill-opacity="0.1"/>
<path opacity="0.49" d="M296.852 535.044L-100.005 241.316C-100.964 240.607 -102.667 240.514 -103.809 241.109C-104.952 241.705 -105.101 242.762 -104.142 243.472L292.715 537.199C293.674 537.909 295.377 538.001 296.519 537.406C297.661 536.811 297.81 535.753 296.852 535.044Z" fill="#F96F34" fill-opacity="0.1"/>
<path opacity="0.09" d="M1185.61 415.09L958.835 247.246C957.877 246.536 956.174 246.444 955.031 247.039C953.889 247.634 953.74 248.692 954.698 249.401L1181.47 417.246C1182.43 417.955 1184.14 418.048 1185.28 417.452C1186.42 416.857 1186.57 415.799 1185.61 415.09Z" fill="#F96F34" fill-opacity="0.1"/>
<path opacity="0.47" d="M959.069 102.534L746.177 -55.0341C745.219 -55.7435 743.516 -55.836 742.374 -55.2408C741.231 -54.6455 741.082 -53.5878 742.041 -52.8784L954.932 104.69C955.891 105.399 957.594 105.492 958.736 104.896C959.878 104.301 960.027 103.243 959.069 102.534Z" fill="#F96F34" fill-opacity="0.1"/>
<path opacity="0.92" d="M585.301 482.147L180.345 182.425C179.387 181.715 177.684 181.623 176.541 182.218C175.399 182.813 175.25 183.871 176.209 184.58L581.165 484.302C582.123 485.012 583.826 485.104 584.969 484.509C586.111 483.914 586.26 482.856 585.301 482.147Z" fill="#F96F34" fill-opacity="0.1"/>
<path opacity="0.63" d="M733.041 389.758L529.406 239.041C528.447 238.331 526.744 238.239 525.602 238.834C524.46 239.429 524.311 240.487 525.269 241.197L728.904 391.914C729.863 392.623 731.566 392.716 732.708 392.12C733.85 391.525 733.999 390.468 733.041 389.758Z" fill="#F96F34" fill-opacity="0.1"/>
<path opacity="0.95" d="M551.952 900.223L418.895 801.743C417.936 801.034 416.233 800.941 415.091 801.537C413.949 802.132 413.8 803.19 414.758 803.899L547.815 902.379C548.774 903.088 550.477 903.181 551.619 902.586C552.761 901.99 552.91 900.933 551.952 900.223Z" fill="#F96F34" fill-opacity="0.1"/>
<path opacity="0.62" d="M947.112 340.905L736.535 185.049C735.576 184.34 733.873 184.247 732.731 184.843C731.588 185.438 731.439 186.495 732.398 187.205L942.975 343.06C943.934 343.77 945.637 343.862 946.779 343.267C947.921 342.672 948.07 341.614 947.112 340.905Z" fill="#F96F34" fill-opacity="0.1"/>
<path opacity="0.14" d="M578.112 841.716L367.535 685.861C366.576 685.151 364.873 685.059 363.731 685.654C362.588 686.249 362.439 687.307 363.398 688.017L573.975 843.872C574.934 844.581 576.637 844.674 577.779 844.079C578.921 843.483 579.07 842.426 578.112 841.716Z" fill="#F96F34" fill-opacity="0.1"/>
<path opacity="0.66" d="M568.342 652.056L380.905 513.327C379.946 512.618 378.243 512.525 377.101 513.121C375.959 513.716 375.81 514.774 376.768 515.483L564.205 654.211C565.163 654.921 566.867 655.013 568.009 654.418C569.151 653.823 569.3 652.765 568.342 652.056Z" fill="#F96F34" fill-opacity="0.1"/>
<path opacity="0.9" d="M812.751 679.269L539.695 477.171C538.736 476.461 537.033 476.369 535.891 476.964C534.749 477.559 534.6 478.617 535.558 479.327L808.615 681.425C809.573 682.134 811.276 682.227 812.418 681.631C813.561 681.036 813.71 679.978 812.751 679.269Z" fill="#F96F34" fill-opacity="0.1"/>
<path opacity="0.65" d="M1337.71 969.349L1029.94 741.561C1028.98 740.851 1027.28 740.759 1026.14 741.354C1024.99 741.949 1024.84 743.007 1025.8 743.716L1333.57 971.505C1334.53 972.214 1336.23 972.307 1337.37 971.712C1338.52 971.116 1338.66 970.059 1337.71 969.349Z" fill="#F96F34" fill-opacity="0.1"/>
<path opacity="0.98" d="M200.887 874.679L64.3591 773.63C63.4006 772.92 61.6975 772.828 60.5552 773.423C59.4129 774.018 59.2639 775.076 60.2224 775.785L196.751 876.834C197.709 877.544 199.412 877.636 200.554 877.041C201.697 876.446 201.846 875.388 200.887 874.679Z" fill="#F96F34" fill-opacity="0.1"/>
<path opacity="0.67" d="M845.74 231.037L765.906 171.949C764.947 171.24 763.244 171.147 762.102 171.743C760.96 172.338 760.811 173.396 761.769 174.105L841.604 233.193C842.562 233.902 844.265 233.995 845.407 233.4C846.55 232.804 846.699 231.747 845.74 231.037Z" fill="#F96F34" fill-opacity="0.1"/>
<path opacity="0.36" d="M402.547 155.908L172.3 -14.5056C171.341 -15.2151 169.638 -15.3076 168.496 -14.7123C167.354 -14.117 167.205 -13.0594 168.163 -12.35L398.41 158.063C399.368 158.773 401.071 158.865 402.214 158.27C403.356 157.675 403.505 156.617 402.547 155.908Z" fill="#F96F34" fill-opacity="0.1"/>
<path opacity="0.27" d="M237.396 851.992L-0.949532 675.585C-1.90804 674.875 -3.61108 674.783 -4.75338 675.378C-5.89568 675.973 -6.04468 677.031 -5.08617 677.74L233.259 854.148C234.218 854.857 235.921 854.95 237.063 854.355C238.206 853.759 238.355 852.702 237.396 851.992Z" fill="#F96F34" fill-opacity="0.1"/>
<path opacity="0.28" d="M265.177 609.761L198.07 560.093C197.111 559.384 195.408 559.291 194.266 559.886C193.124 560.482 192.975 561.539 193.933 562.249L261.04 611.917C261.999 612.626 263.702 612.719 264.844 612.124C265.986 611.528 266.135 610.471 265.177 609.761Z" fill="#F96F34" fill-opacity="0.1"/>
<path opacity="0.21" d="M1042.76 627.113L684.085 361.645C683.127 360.935 681.424 360.843 680.282 361.438C679.139 362.033 678.99 363.091 679.949 363.8L1038.62 629.268C1039.58 629.978 1041.29 630.07 1042.43 629.475C1043.57 628.88 1043.72 627.822 1042.76 627.113Z" fill="#F96F34" fill-opacity="0.1"/>
<path opacity="0.42" d="M654.1 183.709L496.746 67.2456C495.788 66.5362 494.084 66.4437 492.942 67.039C491.8 67.6342 491.651 68.6919 492.609 69.4013L649.964 185.865C650.922 186.574 652.625 186.667 653.768 186.071C654.91 185.476 655.059 184.418 654.1 183.709Z" fill="#F96F34" fill-opacity="0.1"/>
<path opacity="0.94" d="M1520.99 563.889L1260.66 371.21C1259.7 370.501 1258 370.408 1256.85 371.004C1255.71 371.599 1255.56 372.657 1256.52 373.366L1516.85 566.044C1517.81 566.754 1519.51 566.846 1520.65 566.251C1521.8 565.656 1521.95 564.598 1520.99 563.889Z" fill="#F96F34" fill-opacity="0.1"/>
<path opacity="0.47" d="M591.036 135.807L430.21 16.7742C429.252 16.0648 427.549 15.9723 426.407 16.5676C425.264 17.1628 425.115 18.2205 426.074 18.9299L586.899 137.962C587.858 138.672 589.561 138.764 590.703 138.169C591.845 137.574 591.994 136.516 591.036 135.807Z" fill="#F96F34" fill-opacity="0.1"/>
<path opacity="0.47" d="M174.206 138.781L-9.75983 2.62131C-10.7183 1.91189 -12.4214 1.81936 -13.5637 2.41463C-14.706 3.00991 -14.855 4.06758 -13.8965 4.777L170.069 140.936C171.028 141.646 172.731 141.738 173.873 141.143C175.016 140.548 175.165 139.49 174.206 138.781Z" fill="#F96F34" fill-opacity="0.1"/>
<path opacity="0.77" d="M1257.29 269.173L980.759 64.5053C979.801 63.7959 978.098 63.7034 976.956 64.2987C975.813 64.8939 975.664 65.9516 976.623 66.661L1253.15 271.328C1254.11 272.038 1255.81 272.13 1256.95 271.535C1258.1 270.94 1258.25 269.882 1257.29 269.173Z" fill="#F96F34" fill-opacity="0.1"/>
<path opacity="0.07" d="M484.576 860.553L277.47 707.267C276.512 706.558 274.809 706.465 273.666 707.061C272.524 707.656 272.375 708.713 273.334 709.423L480.44 862.709C481.398 863.419 483.101 863.511 484.244 862.916C485.386 862.321 485.535 861.263 484.576 860.553Z" fill="#F96F34" fill-opacity="0.1"/>
<path opacity="0.65" d="M249.358 333.957L105.888 227.769C104.93 227.06 103.227 226.967 102.084 227.563C100.942 228.158 100.793 229.216 101.751 229.925L245.222 336.112C246.18 336.822 247.883 336.914 249.026 336.319C250.168 335.724 250.317 334.666 249.358 333.957Z" fill="#F96F34" fill-opacity="0.1"/>
<path opacity="0.77" d="M1087.65 873.915L1013.6 819.109C1012.64 818.399 1010.94 818.307 1009.79 818.902C1008.65 819.497 1008.5 820.555 1009.46 821.264L1083.51 876.071C1084.47 876.78 1086.17 876.873 1087.31 876.277C1088.46 875.682 1088.61 874.624 1087.65 873.915Z" fill="#F96F34" fill-opacity="0.1"/>
<path opacity="0.8" d="M706.168 870.925L477.078 701.368C476.12 700.658 474.417 700.566 473.274 701.161C472.132 701.756 471.983 702.814 472.942 703.523L702.031 873.08C702.99 873.79 704.693 873.882 705.835 873.287C706.977 872.692 707.126 871.634 706.168 870.925Z" fill="#F96F34" fill-opacity="0.1"/>
<path opacity="0.29" d="M1307.23 800.41L909.216 505.826C908.257 505.117 906.554 505.024 905.412 505.62C904.27 506.215 904.121 507.272 905.079 507.982L1303.09 802.566C1304.05 803.275 1305.75 803.368 1306.9 802.772C1308.04 802.177 1308.19 801.119 1307.23 800.41Z" fill="#F96F34" fill-opacity="0.1"/>
<path opacity="0.94" d="M853.777 807.627L786.67 757.958C785.711 757.249 784.008 757.156 782.866 757.752C781.723 758.347 781.574 759.405 782.533 760.114L849.64 809.782C850.599 810.492 852.302 810.584 853.444 809.989C854.586 809.394 854.735 808.336 853.777 807.627Z" fill="#F96F34" fill-opacity="0.1"/>
<path opacity="0.94" d="M419.062 494.797L76.5846 241.318C75.6261 240.609 73.9231 240.516 72.7808 241.112C71.6385 241.707 71.4895 242.765 72.448 243.474L414.925 496.953C415.884 497.663 417.587 497.755 418.729 497.16C419.871 496.565 420.02 495.507 419.062 494.797Z" fill="#F96F34" fill-opacity="0.1"/>
<path opacity="0.81" d="M889.836 142.514L729.01 23.4815C728.052 22.7721 726.349 22.6796 725.207 23.2749C724.064 23.8701 723.915 24.9278 724.874 25.6372L885.699 144.67C886.658 145.379 888.361 145.472 889.503 144.876C890.645 144.281 890.794 143.223 889.836 142.514Z" fill="#F96F34" fill-opacity="0.1"/>
<path opacity="0.22" d="M1359.12 500.452L1170.53 360.867C1169.57 360.158 1167.86 360.065 1166.72 360.66C1165.58 361.256 1165.43 362.313 1166.39 363.023L1354.98 502.607C1355.94 503.317 1357.64 503.409 1358.79 502.814C1359.93 502.219 1360.08 501.161 1359.12 500.452Z" fill="#F96F34" fill-opacity="0.1"/>
<path opacity="0.93" d="M127.669 247.472L54.777 193.522C53.8185 192.813 52.1155 192.72 50.9732 193.316C49.8309 193.911 49.6819 194.969 50.6404 195.678L123.533 249.628C124.491 250.337 126.194 250.43 127.336 249.835C128.479 249.239 128.628 248.182 127.669 247.472Z" fill="#F96F34" fill-opacity="0.1"/>
<path opacity="0.38" d="M1453.3 103.837L1360.74 35.3292C1359.78 34.6198 1358.08 34.5272 1356.94 35.1225C1355.8 35.7178 1355.65 36.7755 1356.61 37.4849L1449.17 105.993C1450.13 106.702 1451.83 106.795 1452.97 106.199C1454.11 105.604 1454.26 104.546 1453.3 103.837Z" fill="#F96F34" fill-opacity="0.1"/>
<path opacity="0.21" d="M1484.09 321.519L1304.75 188.785C1303.8 188.075 1302.09 187.983 1300.95 188.578C1299.81 189.173 1299.66 190.231 1300.62 190.94L1479.96 323.674C1480.91 324.384 1482.62 324.476 1483.76 323.881C1484.9 323.286 1485.05 322.228 1484.09 321.519Z" fill="#F96F34" fill-opacity="0.1"/>
<path opacity="0.31" d="M402.097 611.243L179.949 446.824C178.991 446.114 177.288 446.022 176.146 446.617C175.003 447.212 174.854 448.27 175.813 448.979L397.96 613.398C398.919 614.108 400.622 614.2 401.764 613.605C402.906 613.01 403.055 611.952 402.097 611.243Z" fill="#F96F34" fill-opacity="0.1"/>
<path opacity="0.36" d="M640.406 331.057L456.44 194.897C455.482 194.188 453.779 194.095 452.636 194.691C451.494 195.286 451.345 196.344 452.303 197.053L636.269 333.212C637.228 333.922 638.931 334.014 640.073 333.419C641.215 332.824 641.364 331.766 640.406 331.057Z" fill="#F96F34" fill-opacity="0.1"/>
<path opacity="0.73" d="M492.87 197.862L312.376 64.2715C311.417 63.5621 309.714 63.4696 308.572 64.0648C307.43 64.6601 307.281 65.7178 308.239 66.4272L488.734 200.018C489.692 200.727 491.395 200.819 492.538 200.224C493.68 199.629 493.829 198.571 492.87 197.862Z" fill="#F96F34" fill-opacity="0.1"/>
<path opacity="0.51" d="M1386.06 570.041L1323.58 523.798C1322.63 523.088 1320.92 522.996 1319.78 523.591C1318.64 524.186 1318.49 525.244 1319.45 525.953L1381.93 572.196C1382.88 572.906 1384.59 572.998 1385.73 572.403C1386.87 571.808 1387.02 570.75 1386.06 570.041Z" fill="#F96F34" fill-opacity="0.1"/>
<path opacity="0.17" d="M626.839 109.98L390.807 -64.7155C389.849 -65.4249 388.146 -65.5174 387.003 -64.9222C385.861 -64.3269 385.712 -63.2692 386.671 -62.5598L622.702 112.135C623.661 112.845 625.364 112.937 626.506 112.342C627.648 111.747 627.797 110.689 626.839 109.98Z" fill="#F96F34" fill-opacity="0.1"/>
<path opacity="0.91" d="M370.087 804.252L233.559 703.203C232.601 702.494 230.898 702.401 229.755 702.996C228.613 703.592 228.464 704.649 229.423 705.359L365.951 806.408C366.909 807.117 368.612 807.21 369.755 806.614C370.897 806.019 371.046 804.961 370.087 804.252Z" fill="#F96F34" fill-opacity="0.1"/>
<path opacity="0.94" d="M573.932 350.23L332.115 171.253C331.156 170.543 329.453 170.451 328.311 171.046C327.169 171.641 327.02 172.699 327.978 173.408L569.795 352.385C570.753 353.095 572.457 353.187 573.599 352.592C574.741 351.997 574.89 350.939 573.932 350.23Z" fill="#F96F34" fill-opacity="0.1"/>
<path opacity="0.74" d="M1227.85 551.347L1143.39 488.833C1142.43 488.124 1140.73 488.031 1139.59 488.627C1138.45 489.222 1138.3 490.28 1139.26 490.989L1223.72 553.502C1224.68 554.212 1226.38 554.304 1227.52 553.709C1228.66 553.114 1228.81 552.056 1227.85 551.347Z" fill="#F96F34" fill-opacity="0.1"/>
<path opacity="0.54" d="M968.517 718.941L715.13 531.401C714.171 530.691 712.468 530.599 711.326 531.194C710.184 531.789 710.035 532.847 710.993 533.557L964.38 721.097C965.339 721.806 967.042 721.899 968.184 721.303C969.326 720.708 969.475 719.651 968.517 718.941Z" fill="#F96F34" fill-opacity="0.1"/>
<path opacity="0.56" d="M804.523 348.304L540.723 153.056C539.765 152.347 538.062 152.255 536.919 152.85C535.777 153.445 535.628 154.503 536.587 155.212L800.387 350.46C801.345 351.169 803.048 351.262 804.191 350.666C805.333 350.071 805.482 349.013 804.523 348.304Z" fill="#F96F34" fill-opacity="0.1"/>
<path opacity="0.4" d="M995.654 403.786L911.192 341.273C910.234 340.563 908.531 340.471 907.388 341.066C906.246 341.661 906.097 342.719 907.055 343.428L991.518 405.942C992.476 406.651 994.179 406.744 995.322 406.148C996.464 405.553 996.613 404.496 995.654 403.786Z" fill="#F96F34" fill-opacity="0.1"/>
<path opacity="0.39" d="M810.505 181.665L610.341 33.517C609.383 32.8076 607.68 32.7151 606.537 33.3104C605.395 33.9056 605.246 34.9633 606.205 35.6727L806.369 183.821C807.327 184.53 809.03 184.623 810.173 184.028C811.315 183.432 811.464 182.375 810.505 181.665Z" fill="#F96F34" fill-opacity="0.1"/>
<path opacity="0.96" d="M501.874 565.143L386.172 479.508C385.214 478.799 383.511 478.706 382.368 479.302C381.226 479.897 381.077 480.955 382.036 481.664L497.737 567.299C498.696 568.008 500.399 568.101 501.541 567.506C502.684 566.91 502.833 565.853 501.874 565.143Z" fill="#F96F34" fill-opacity="0.1"/>
<path opacity="0.5" d="M1432.99 783.223L1377.45 742.118C1376.5 741.409 1374.79 741.316 1373.65 741.912C1372.51 742.507 1372.36 743.565 1373.32 744.274L1428.85 785.379C1429.81 786.088 1431.52 786.181 1432.66 785.585C1433.8 784.99 1433.95 783.932 1432.99 783.223Z" fill="#F96F34" fill-opacity="0.1"/>
<path opacity="0.86" d="M274.372 24.9164L250.074 6.93308C249.116 6.22366 247.413 6.13113 246.271 6.7264C245.128 7.32168 244.979 8.37934 245.938 9.08877L270.235 27.0721C271.194 27.7815 272.897 27.874 274.039 27.2788C275.181 26.6835 275.33 25.6258 274.372 24.9164Z" fill="#F96F34" fill-opacity="0.1"/>
<path opacity="0.28" d="M777.272 815.241L629.174 705.629C628.215 704.919 626.512 704.827 625.37 705.422C624.228 706.017 624.079 707.075 625.037 707.784L773.136 817.397C774.094 818.106 775.797 818.199 776.939 817.603C778.082 817.008 778.231 815.951 777.272 815.241Z" fill="#F96F34" fill-opacity="0.1"/>
<path opacity="0.75" d="M98.4162 144.368L-31.1697 48.4568C-32.1283 47.7474 -33.8313 47.6549 -34.9736 48.2501C-36.1159 48.8454 -36.2649 49.9031 -35.3064 50.6125L94.2796 146.524C95.2381 147.233 96.9412 147.325 98.0835 146.73C99.2258 146.135 99.3747 145.077 98.4162 144.368Z" fill="#F96F34" fill-opacity="0.1"/>
<path opacity="0.55" d="M812.753 742.178L572.093 564.058C571.135 563.348 569.432 563.256 568.29 563.851C567.147 564.446 566.998 565.504 567.957 566.214L808.616 744.334C809.575 745.043 811.278 745.136 812.42 744.541C813.563 743.945 813.712 742.888 812.753 742.178Z" fill="#F96F34" fill-opacity="0.1"/>
<path opacity="0.95" d="M597.792 880.479L542.255 839.374C541.296 838.665 539.593 838.572 538.451 839.167C537.309 839.763 537.16 840.82 538.118 841.53L593.655 882.635C594.614 883.344 596.317 883.436 597.459 882.841C598.601 882.246 598.75 881.188 597.792 880.479Z" fill="#F96F34" fill-opacity="0.1"/>
<path opacity="0.76" d="M682.44 590.246L338.806 335.91C337.848 335.201 336.145 335.108 335.002 335.704C333.86 336.299 333.711 337.357 334.669 338.066L678.304 592.401C679.262 593.111 680.965 593.203 682.108 592.608C683.25 592.013 683.399 590.955 682.44 590.246Z" fill="#F96F34" fill-opacity="0.1"/>
<path opacity="0.1" d="M271.974 819.271L-107.528 538.388C-108.486 537.679 -110.189 537.586 -111.332 538.182C-112.474 538.777 -112.623 539.835 -111.664 540.544L267.838 821.426C268.796 822.136 270.499 822.228 271.641 821.633C272.784 821.038 272.933 819.98 271.974 819.271Z" fill="#F96F34" fill-opacity="0.1"/>
</svg>
